<svg width="258" height="213" viewBox="0 0 258 213" fill="none" xmlns="http://www.w3.org/2000/svg">
<path d="M69.2507 67.4214V20.088C77.3 17.2854 99.6453 10.5574 128.668 10.5574C157.692 10.5574 180.039 17.2867 188.083 20.088V67.4214C191.601 67.8107 195.12 68.2267 198.64 68.6853V12.908L195.401 11.5507C194.275 11.08 167.385 1.04221e-06 128.668 1.04221e-06C89.9506 1.04221e-06 63.0586 11.08 61.932 11.5507L58.6933 12.908V68.6853C62.2133 68.2267 65.732 67.8107 69.2507 67.4214" fill="#28A745"/>
<path d="M188.083 139.296V167.544L128.668 200.441L69.2507 167.544V139.296C65.732 139.735 62.2133 140.209 58.6933 140.724V173.767L128.668 212.509L198.64 173.767V140.725C195.12 140.209 191.601 139.735 188.083 139.296" fill="#28A745"/>
<path d="M217.612 141.101C157.827 129.996 99.5067 129.996 39.7213 141.101C35.8547 119.592 31.988 98.084 28.1213 76.5746C95.5307 63.8653 161.803 63.8653 229.212 76.5746C225.345 98.084 221.479 119.592 217.612 141.101Z" fill="#28A745"/>
<path d="M37.3093 144.153C34.12 126.988 30.9307 109.824 27.7413 92.6587C16.5947 95.032 11.0427 96.384 0 99.4187C9.24667 110.447 13.696 116.065 22.2387 127.484C19.0653 141.713 17.6707 148.836 15.2653 163.064C27.7653 159.629 40.4013 156.763 53.128 154.473C52.3093 149.264 51.9013 146.659 51.084 141.449C45.5627 142.441 42.8067 142.983 37.3093 144.153" fill="#28A745"/>
<path d="M220.024 144.153C223.213 126.988 226.403 109.824 229.592 92.6587C240.739 95.032 246.291 96.384 257.333 99.4187C248.087 110.447 243.637 116.065 235.095 127.484C238.268 141.713 239.663 148.836 242.068 163.064C229.568 159.629 216.932 156.763 204.207 154.473C205.024 149.264 205.432 146.659 206.249 141.449C211.771 142.441 214.527 142.983 220.024 144.153" fill="#28A745"/>
<path d="M147.052 53.884L157.381 28.62L144.295 33.8773C144.464 34.5653 144.557 35.292 144.557 36.0453C144.557 40.2093 141.791 43.5854 138.377 43.5854C134.965 43.5854 132.199 40.2093 132.199 36.0453C132.199 32.4 134.32 29.3587 137.14 28.6587L128.667 18.0773L120.195 28.6587C123.013 29.3587 125.136 32.4 125.136 36.0453C125.136 40.2093 122.369 43.5854 118.956 43.5854C115.543 43.5854 112.776 40.2093 112.776 36.0453C112.776 35.292 112.869 34.5653 113.039 33.8773L99.952 28.62L110.281 53.884C122.541 53.268 134.792 53.268 147.052 53.884" fill="#28A745"/>
<path d="M107.327 56.3707L109.567 61.7387C122.304 61.112 135.031 61.112 147.767 61.7387L150.007 56.3707C135.777 55.76 121.556 55.76 107.327 56.3707" fill="#28A745"/>
<path d="M92.78 56.1947C89.3494 56.5987 86.8734 59.592 86.8734 59.592C86.8734 59.592 89.9587 61.9293 93.3907 61.5253C96.8213 61.1213 99.1973 58.2613 99.2973 58.1293C99.3973 57.9973 96.212 55.7907 92.78 56.1947Z" fill="#28A745"/>
<path d="M86.8933 50.2586C83.6133 49.588 80.5546 51.58 80.5546 51.58C80.5546 51.58 82.8146 54.66 86.096 55.3307C89.376 56.0013 92.3093 54.0986 92.4346 54.008C92.5613 53.9186 90.1746 50.9293 86.8933 50.2586" fill="#28A745"/>
<path d="M81.9867 42.3533C79.1853 40.704 75.8707 41.5186 75.8707 41.5186C75.8707 41.5186 77.0973 45.008 79.8987 46.6573C82.6987 48.3066 85.8747 47.532 86.0133 47.4906C86.152 47.4506 84.7867 44.0026 81.9867 42.3533" fill="#28A745"/>
<path d="M97.188 50.4213C97.784 53.5227 100.285 55.612 100.285 55.612C100.285 55.612 101.823 52.6733 101.227 49.572C100.632 46.4707 98.24 44.4653 98.1307 44.3813C98.0213 44.2973 96.5933 47.32 97.188 50.4213Z" fill="#28A745"/>
<path d="M91.7653 45.476C91.9387 48.2987 93.9227 50.4867 93.9227 50.4867C93.9227 50.4867 95.624 48.0973 95.4507 45.2733C95.276 42.4507 93.38 40.352 93.292 40.2627C93.2053 40.1734 91.5907 42.652 91.7653 45.476Z" fill="#28A745"/>
<path d="M87.4387 40.0053C87.32 42.6813 88.9733 44.9747 88.9733 44.9747C88.9733 44.9747 90.82 42.9293 90.9387 40.2533C91.0573 37.5773 89.4773 35.3787 89.404 35.284C89.3293 35.1907 87.5573 37.3293 87.4387 40.0053Z" fill="#28A745"/>
<path d="M80.9147 36.0107C81.8547 38.7067 84.2533 40.24 84.2533 40.24C84.2533 40.24 85.128 37.404 84.188 34.708C83.2467 32.012 80.952 30.5387 80.8493 30.4787C80.7453 30.4173 79.9747 33.3147 80.9147 36.0107Z" fill="#28A745"/>
<path d="M104.829 58.224C104.829 58.224 104.44 58.1293 103.748 57.896C103.06 57.6667 102.081 57.2973 100.935 56.776C99.7906 56.2493 98.4759 55.5707 97.1239 54.7293C96.4493 54.3053 95.7586 53.852 95.08 53.3547C94.396 52.864 93.7239 52.3293 93.0639 51.7773C92.4106 51.216 91.7679 50.6387 91.1626 50.0347C90.8613 49.7333 90.5586 49.4373 90.2773 49.124C89.9893 48.8187 89.7066 48.5147 89.4426 48.2C89.1746 47.8907 88.9093 47.588 88.668 47.2747C88.4226 46.964 88.1733 46.668 87.9546 46.3587C87.7319 46.0533 87.508 45.7613 87.3066 45.468C87.1066 45.172 86.9133 44.8867 86.7279 44.612C86.3706 44.0533 86.0466 43.5373 85.7786 43.068C85.5173 42.5933 85.2733 42.188 85.1 41.8387C84.748 41.1427 84.5453 40.744 84.5453 40.744L84.544 40.74C84.5173 40.688 84.4573 40.668 84.4093 40.696C84.3626 40.724 84.3466 40.788 84.3706 40.84C84.3706 40.84 84.5666 41.244 84.9106 41.952C85.0786 42.308 85.3173 42.72 85.572 43.204C85.8346 43.6827 86.152 44.2093 86.5026 44.7813C86.6853 45.0613 86.8746 45.3547 87.072 45.6573C87.2706 45.9573 87.492 46.256 87.712 46.5693C87.9266 46.8867 88.1746 47.1907 88.416 47.5093C88.656 47.832 88.9186 48.1427 89.184 48.4613C89.4453 48.7853 89.7266 49.0973 90.012 49.4133C90.292 49.736 90.5933 50.0427 90.8933 50.3533C91.4946 50.9773 92.1359 51.576 92.7893 52.1587C93.4479 52.732 94.1213 53.2867 94.8066 53.7987C95.4866 54.3173 96.1786 54.7933 96.8573 55.236C98.2159 56.12 99.5413 56.8373 100.697 57.3973C101.857 57.952 102.848 58.3493 103.553 58.6C104.253 58.852 104.677 58.9653 104.677 58.9653L104.681 58.9667C104.869 59.016 105.057 58.8907 105.1 58.6867C105.143 58.4827 105.025 58.276 104.837 58.2253C104.835 58.2253 104.832 58.224 104.829 58.224" fill="#28A745"/>
<path d="M164.553 56.1947C167.984 56.5987 170.461 59.592 170.461 59.592C170.461 59.592 167.375 61.9293 163.944 61.5253C160.512 61.1213 158.136 58.2613 158.036 58.1293C157.936 57.9973 161.123 55.7907 164.553 56.1947Z" fill="#28A745"/>
<path d="M170.44 50.2586C173.721 49.588 176.78 51.58 176.78 51.58C176.78 51.58 174.519 54.66 171.239 55.3307C167.957 56.0013 165.025 54.0986 164.899 54.008C164.772 53.9186 167.16 50.9293 170.44 50.2586" fill="#28A745"/>
<path d="M175.348 42.3533C178.148 40.704 181.463 41.5186 181.463 41.5186C181.463 41.5186 180.236 45.008 177.436 46.6573C174.635 48.3066 171.459 47.532 171.32 47.4906C171.181 47.4506 172.547 44.0026 175.348 42.3533" fill="#28A745"/>
<path d="M160.145 50.4213C159.551 53.5227 157.049 55.612 157.049 55.612C157.049 55.612 155.512 52.6733 156.107 49.572C156.701 46.4707 159.093 44.4653 159.204 44.3813C159.313 44.2973 160.74 47.32 160.145 50.4213Z" fill="#28A745"/>
<path d="M165.568 45.476C165.395 48.2987 163.411 50.4867 163.411 50.4867C163.411 50.4867 161.709 48.0973 161.883 45.2733C162.057 42.4507 163.953 40.352 164.041 40.2627C164.129 40.1734 165.743 42.652 165.568 45.476Z" fill="#28A745"/>
<path d="M169.895 40.0053C170.013 42.6813 168.36 44.9747 168.36 44.9747C168.36 44.9747 166.515 42.9293 166.396 40.2533C166.277 37.5773 167.856 35.3787 167.931 35.284C168.004 35.1907 169.776 37.3293 169.895 40.0053Z" fill="#28A745"/>
<path d="M176.419 34.0107C175.479 36.7067 173.08 38.24 173.08 38.24C173.08 38.24 172.207 35.404 173.147 32.708C174.087 30.012 176.381 28.5387 176.485 28.4787C176.589 28.4173 177.359 31.3147 176.419 34.0107Z" fill="#28A745"/>
<path d="M152.504 58.224C152.504 58.224 152.893 58.1293 153.585 57.896C154.275 57.6667 155.252 57.2973 156.399 56.776C157.543 56.2493 158.857 55.5707 160.211 54.7293C160.885 54.3053 161.575 53.852 162.253 53.3547C162.937 52.864 163.611 52.3293 164.269 51.7773C164.923 51.216 165.567 50.6387 166.171 50.0347C166.472 49.7333 166.775 49.4373 167.057 49.124C167.344 48.8187 167.627 48.5147 167.891 48.2C168.159 47.8907 168.424 47.588 168.667 47.2747C168.911 46.964 169.16 46.668 169.379 46.3587C169.601 46.0533 169.825 45.7613 170.028 45.468C170.228 45.172 170.42 44.8867 170.605 44.612C170.963 44.0533 171.287 43.5373 171.556 43.068C171.817 42.5933 172.06 42.188 172.233 41.8387C172.587 41.1427 172.788 40.744 172.788 40.744L172.791 40.74C172.816 40.688 172.876 40.668 172.924 40.696C172.971 40.724 172.988 40.788 172.963 40.84C172.963 40.84 172.767 41.244 172.424 41.952C172.255 42.308 172.017 42.72 171.761 43.204C171.499 43.6827 171.181 44.2093 170.831 44.7813C170.648 45.0613 170.459 45.3547 170.261 45.6573C170.063 45.9573 169.841 46.256 169.623 46.5693C169.407 46.8867 169.16 47.1907 168.917 47.5093C168.677 47.832 168.415 48.1427 168.149 48.4613C167.888 48.7853 167.607 49.0973 167.321 49.4133C167.041 49.736 166.741 50.0427 166.44 50.3533C165.839 50.9773 165.197 51.576 164.544 52.1587C163.885 52.732 163.212 53.2867 162.527 53.7987C161.847 54.3173 161.155 54.7933 160.476 55.236C159.117 56.12 157.793 56.8373 156.636 57.3973C155.477 57.952 154.485 58.3493 153.781 58.6C153.081 58.852 152.657 58.9653 152.657 58.9653L152.652 58.9667C152.464 59.016 152.276 58.8907 152.233 58.6867C152.191 58.4827 152.308 58.276 152.497 58.2253C152.499 58.2253 152.503 58.224 152.504 58.224" fill="#28A745"/>
<path d="M90.2588 162.754C91.0033 162.754 91.6584 162.553 92.2242 162.151C92.8049 161.749 93.0953 161.146 93.0953 160.342C93.0953 159.523 92.7826 158.898 92.1572 158.466C91.5467 158.034 90.6682 157.662 89.5217 157.349C88.3901 157.022 87.5637 156.739 87.0426 156.501C86.5363 156.262 86.0524 155.95 85.5908 155.563C84.6677 154.788 84.2061 153.59 84.2061 151.967C84.2061 150.641 84.6751 149.502 85.6132 148.549C86.5661 147.597 87.8615 147.12 89.4994 147.12C90.2885 147.12 91.1075 147.239 91.9562 147.477C92.8198 147.701 93.3558 147.812 93.5643 147.812C93.7728 147.812 93.9589 147.664 94.1227 147.366H94.3683L94.5247 151.877H94.1673C93.4526 150.582 92.7007 149.547 91.9115 148.773C91.1373 147.984 90.2885 147.589 89.3654 147.589C88.4571 147.589 87.7498 147.805 87.2436 148.237C86.7373 148.654 86.4842 149.22 86.4842 149.934C86.4842 150.634 86.782 151.178 87.3776 151.565C87.9881 151.937 88.7326 152.242 89.6111 152.48C90.4896 152.719 91.0628 152.882 91.3308 152.972C91.6137 153.061 91.9562 153.188 92.3582 153.351C92.7751 153.5 93.1102 153.664 93.3633 153.843C93.6313 154.007 93.9068 154.222 94.1897 154.49C94.4875 154.744 94.7183 155.027 94.882 155.339C95.2841 156.054 95.4851 156.903 95.4851 157.885C95.4851 159.493 94.9788 160.789 93.9663 161.772C92.9687 162.739 91.651 163.223 90.0131 163.223C89.1644 163.223 88.1891 163.112 87.0872 162.888C86.0003 162.665 85.3973 162.553 85.2781 162.553C85.0697 162.553 84.8687 162.777 84.6751 163.223H84.3624L84.1391 157.908H84.5188C85.1739 159.203 86.0077 160.335 87.0202 161.303C88.0476 162.27 89.1271 162.754 90.2588 162.754ZM105.108 147.567C102.8 147.567 101.646 149.793 101.646 154.245V156.009C101.646 158.124 101.951 159.784 102.562 160.99C103.172 162.181 104.073 162.777 105.264 162.777C106.902 162.777 108.406 161.183 109.776 157.997H110.178L110.021 162.978H109.776C109.686 162.814 109.605 162.702 109.53 162.643C109.456 162.568 109.344 162.531 109.195 162.531C109.061 162.531 108.525 162.65 107.587 162.888C106.649 163.112 105.696 163.223 104.728 163.223C102.301 163.223 100.418 162.568 99.0775 161.258C97.7523 159.948 97.0897 157.982 97.0897 155.362C97.0897 152.726 97.7821 150.694 99.1668 149.264C100.566 147.835 102.443 147.12 104.795 147.12C105.703 147.12 106.589 147.239 107.453 147.477C108.331 147.701 108.845 147.812 108.994 147.812C109.143 147.812 109.255 147.783 109.329 147.723C109.404 147.649 109.485 147.53 109.575 147.366H109.82L109.999 152.212H109.597C108.927 150.708 108.235 149.562 107.52 148.773C106.82 147.969 106.016 147.567 105.108 147.567ZM112.064 147.366H119.032V147.79H117.737V154.714H122.181V147.79H120.863V147.366H127.854V147.79H126.536V162.576H127.854V163H120.863V162.576H122.181V155.295H117.737V162.576H119.032V163H112.064V162.576H113.381V147.79H112.064V147.366ZM139.513 156.099V154.446C139.513 151.721 139.379 150.001 139.111 149.287C138.814 148.468 138.389 147.961 137.838 147.768C137.526 147.649 137.146 147.589 136.699 147.589C136.252 147.589 135.865 147.649 135.538 147.768C135.225 147.887 134.965 148.095 134.756 148.393C134.548 148.691 134.376 149.004 134.242 149.331C134.123 149.659 134.026 150.12 133.952 150.716C133.863 151.58 133.818 152.853 133.818 154.535V156.143C133.818 157.96 133.885 159.255 134.019 160.029C134.168 160.789 134.347 161.332 134.555 161.66C135.017 162.39 135.731 162.754 136.699 162.754C137.875 162.754 138.635 162.263 138.977 161.28C139.335 160.283 139.513 158.555 139.513 156.099ZM136.655 163.223C134.168 163.223 132.307 162.553 131.071 161.213C129.85 159.858 129.239 157.908 129.239 155.362C129.239 152.8 129.895 150.79 131.205 149.331C132.53 147.857 134.399 147.12 136.811 147.12C139.223 147.12 141.04 147.82 142.261 149.22C143.496 150.604 144.114 152.577 144.114 155.138C144.114 157.699 143.489 159.687 142.238 161.102C141.002 162.516 139.141 163.223 136.655 163.223ZM156.221 156.099V154.446C156.221 151.721 156.087 150.001 155.819 149.287C155.521 148.468 155.097 147.961 154.546 147.768C154.233 147.649 153.853 147.589 153.407 147.589C152.96 147.589 152.573 147.649 152.245 147.768C151.932 147.887 151.672 148.095 151.463 148.393C151.255 148.691 151.084 149.004 150.95 149.331C150.831 149.659 150.734 150.12 150.659 150.716C150.57 151.58 150.525 152.853 150.525 154.535V156.143C150.525 157.96 150.592 159.255 150.726 160.029C150.875 160.789 151.054 161.332 151.262 161.66C151.724 162.39 152.439 162.754 153.407 162.754C154.583 162.754 155.342 162.263 155.685 161.28C156.042 160.283 156.221 158.555 156.221 156.099ZM153.362 163.223C150.875 163.223 149.014 162.553 147.778 161.213C146.557 159.858 145.947 157.908 145.947 155.362C145.947 152.8 146.602 150.79 147.912 149.331C149.237 147.857 151.106 147.12 153.518 147.12C155.93 147.12 157.747 147.82 158.968 149.22C160.204 150.604 160.822 152.577 160.822 155.138C160.822 157.699 160.196 159.687 158.946 161.102C157.71 162.516 155.848 163.223 153.362 163.223ZM162.207 147.366H170.248V147.857H167.88V162.509H168.685C169.95 162.509 170.955 162.122 171.7 161.347C172.459 160.573 173.226 159.382 174 157.774H174.469L174.045 163H162.207V162.509H163.525V147.857H162.207V147.366Z" fill="#28A745"/>
<path d="M128.667 177.405L130.512 183.084H136.483L131.652 186.593L133.497 192.272L128.667 188.763L123.836 192.272L125.681 186.593L120.851 183.084H126.821L128.667 177.405" fill="#28A745"/>
<path d="M114.391 177.025L115.537 180.557H119.251L116.247 182.74L117.395 186.272L114.391 184.089L111.385 186.272L112.533 182.74L109.529 180.557H113.243L114.391 177.025" fill="#28A745"/>
<path d="M142.944 177.025L144.091 180.557H147.805L144.8 182.74L145.948 186.272L142.944 184.089L139.939 186.272L141.087 182.74L138.083 180.557H141.796L142.944 177.025" fill="#28A745"/>
<path d="M32.12 106.44L42.816 104.336Z" fill="#28A745"/>
<path d="M32.12 106.44L42.816 104.336" stroke="#FDF4CA" stroke-width="1.33333" stroke-miterlimit="10" stroke-linecap="round" stroke-linejoin="round"/>
<path d="M32.7133 110.883L43.408 108.779Z" fill="#28A745"/>
<path d="M32.7133 110.883L43.408 108.779" stroke="#FDF4CA" stroke-width="1.33333" stroke-miterlimit="10" stroke-linecap="round" stroke-linejoin="round"/>
<path d="M33.3067 115.324L44.0014 113.22Z" fill="#28A745"/>
<path d="M33.3067 115.324L44.0014 113.22" stroke="#FDF4CA" stroke-width="1.33333" stroke-miterlimit="10" stroke-linecap="round" stroke-linejoin="round"/>
<path d="M225.213 106.44L214.519 104.336Z" fill="#28A745"/>
<path d="M225.213 106.44L214.519 104.336" stroke="#FDF4CA" stroke-width="1.33333" stroke-miterlimit="10" stroke-linecap="round" stroke-linejoin="round"/>
<path d="M224.62 110.883L213.925 108.779Z" fill="#28A745"/>
<path d="M224.62 110.883L213.925 108.779" stroke="#FDF4CA" stroke-width="1.33333" stroke-miterlimit="10" stroke-linecap="round" stroke-linejoin="round"/>
<path d="M224.027 115.324L213.332 113.22Z" fill="#28A745"/>
<path d="M224.027 115.324L213.332 113.22" stroke="#FDF4CA" stroke-width="1.33333" stroke-miterlimit="10" stroke-linecap="round" stroke-linejoin="round"/>
<path d="M66.2542 115.468L64.2102 109.42H58.6662L56.5102 115.468H58.6102V116H54.3262V115.468H55.6422L62.7822 96.232H65.0782L72.1342 115.468H73.4222V116H64.2662V115.468H66.2542ZM61.5502 101.468L58.9182 108.804H63.9862L61.5502 101.468ZM83.4051 96.652C80.5117 96.652 79.0651 99.4427 79.0651 105.024V107.236C79.0651 109.887 79.4477 111.968 80.2131 113.48C80.9784 114.973 82.1077 115.72 83.6011 115.72C85.6544 115.72 87.5397 113.723 89.2571 109.728H89.7611L89.5651 115.972H89.2571C89.1451 115.767 89.0424 115.627 88.9491 115.552C88.8557 115.459 88.7157 115.412 88.5291 115.412C88.3611 115.412 87.6891 115.561 86.5131 115.86C85.3371 116.14 84.1424 116.28 82.9291 116.28C79.8864 116.28 77.5251 115.459 75.8451 113.816C74.1837 112.173 73.3531 109.709 73.3531 106.424C73.3531 103.12 74.2211 100.572 75.9571 98.78C77.7117 96.988 80.0637 96.092 83.0131 96.092C84.1517 96.092 85.2624 96.2413 86.3451 96.54C87.4464 96.82 88.0904 96.96 88.2771 96.96C88.4637 96.96 88.6037 96.9227 88.6971 96.848C88.7904 96.7547 88.8931 96.6053 89.0051 96.4H89.3131L89.5371 102.476H89.0331C88.1931 100.591 87.3251 99.1533 86.4291 98.164C85.5517 97.156 84.5437 96.652 83.4051 96.652ZM103.086 115.468L101.042 109.42H95.4982L93.3422 115.468H95.4422V116H91.1582V115.468H92.4742L99.6142 96.232H101.91L108.966 115.468H110.254V116H101.098V115.468H103.086ZM98.3822 101.468L95.7502 108.804H100.818L98.3822 101.468ZM130.424 105.864C130.424 109.709 129.341 112.388 127.176 113.9C125.178 115.3 122.434 116 118.944 116H111.02V115.468H112.868V96.932H111.02V96.4H119.672C123.256 96.4 125.944 97.1373 127.736 98.612C129.528 100.068 130.424 102.485 130.424 105.864ZM118.328 115.468H119.392C121.277 115.468 122.621 114.805 123.424 113.48C124.245 112.136 124.656 109.896 124.656 106.76V105.136C124.656 100.936 123.853 98.4067 122.248 97.548C121.482 97.1373 120.4 96.932 119 96.932H118.328V115.468ZM132.156 96.4H146.716L146.996 101.944H146.492C145.708 100.059 144.887 98.7707 144.028 98.08C143.17 97.3707 141.91 97.016 140.248 97.016H139.268V105.668H140.22C141.098 105.668 141.835 105.341 142.432 104.688C143.03 104.016 143.45 103.12 143.692 102H144.112V110.288H143.636C143.3 108.888 142.843 107.889 142.264 107.292C141.704 106.695 140.93 106.396 139.94 106.396H139.268V115.384H140.332C142.05 115.384 143.506 114.871 144.7 113.844C145.914 112.817 146.744 111.501 147.192 109.896H147.752L147.528 116H132.156V115.384H133.808V97.016H132.156V96.4ZM164.385 96.4H171.861V96.932H170.321V115.468H171.861V116H163.321V115.468H164.861V97.968H164.749L160.549 116H157.049L152.121 97.884H152.009V115.468H153.549V116H149.741V115.468H151.281V96.932H149.741V96.4H157.301L161.025 110.82L164.385 96.4ZM173.257 96.4H181.797V96.932H180.257V115.468H181.797V116H173.257V115.468H174.797V96.932H173.257V96.4ZM193.71 96.652C190.816 96.652 189.37 99.4427 189.37 105.024V107.236C189.37 109.887 189.752 111.968 190.518 113.48C191.283 114.973 192.412 115.72 193.906 115.72C195.959 115.72 197.844 113.723 199.562 109.728H200.066L199.87 115.972H199.562C199.45 115.767 199.347 115.627 199.254 115.552C199.16 115.459 199.02 115.412 198.834 115.412C198.666 115.412 197.994 115.561 196.818 115.86C195.642 116.14 194.447 116.28 193.234 116.28C190.191 116.28 187.83 115.459 186.15 113.816C184.488 112.173 183.658 109.709 183.658 106.424C183.658 103.12 184.526 100.572 186.262 98.78C188.016 96.988 190.368 96.092 193.318 96.092C194.456 96.092 195.567 96.2413 196.65 96.54C197.751 96.82 198.395 96.96 198.582 96.96C198.768 96.96 198.908 96.9227 199.002 96.848C199.095 96.7547 199.198 96.6053 199.31 96.4H199.618L199.842 102.476H199.338C198.498 100.591 197.63 99.1533 196.734 98.164C195.856 97.156 194.848 96.652 193.71 96.652Z" fill="white"/>
</svg>
